{"title":"The First Purge 2018 720p WEB-DL x264 ESub [MW]","magnet":"magnet:?xt=urn:btih:3ae8ded3f4895d18e941d534df2e525634ae6a5c&dn=The+First+Purge+2018+720p+WEB-DL+x264+ESub+%5BMW%5D&tr=udp%3A%2F%2Ftracker.leechers-paradise.org%3A6969&tr=udp%3A%2F%2Fzer0day.ch%3A1337&tr=udp%3A%2F%2Fopen.demonii.com%3A1337&tr=udp%3A%2F%2Ftracker.coppersurfer.tk%3A6969&tr=udp%3A%2F%2Fexodus.desync.com%3A6969","uploader":"MFreaky","categoryP":"video","categoryS":"hd___movies","size":"883341638","seeders":"37","leechers":"41","description":" <a href=\"https://pichub.site/image/Ekug4\" rel=\"nofollow\" target=\"_NEW\">https://pichub.site/image/Ekug4</a> <a href=\"\nhttps://pichub.site/image/EkmSt\" rel=\"nofollow\" target=\"_NEW\">\nhttps://pichub.site/image/EkmSt</a> <a href=\"\nhttps://pichub.site/image/EkK96\" rel=\"nofollow\" target=\"_NEW\">\nhttps://pichub.site/image/EkK96</a> <a href=\"\nhttps://pichub.site/image/EkBvY\" rel=\"nofollow\" target=\"_NEW\">\nhttps://pichub.site/image/EkBvY</a> <a href=\"\nhttps://pichub.site/image/Ekzbs\" rel=\"nofollow\" target=\"_NEW\">\nhttps://pichub.site/image/Ekzbs</a>\r\n\r\nIMDB <a href=\"\nhttps://www.imdb.com/title/tt6133466/\" rel=\"nofollow\" target=\"_NEW\">\nhttps://www.imdb.com/title/tt6133466/</a>\r\n\r\nVideo\r\nFormat                                   : AVC\r\nFormat/Info                              : Advanced Video Codec\r\nFormat profile                           : High@L4.1\r\nFormat settings                          : CABAC / 4 Ref Frames\r\nFormat settings, CABAC                   : Yes\r\nFormat settings, RefFrames               : 4 frames\r\nCodec ID                                 : V_MPEG4/ISO/AVC\r\nDuration                                 : 1 h 37 min\r\nBit rate                                 : 1 100 kb/s\r\nWidth                                    : 1 280 pixels\r\nHeight                                   : 536 pixels\r\nDisplay aspect ratio                     : 2.40:1\r\nFrame rate mode                          : Constant\r\nFrame rate                               : 23.976 (24000/1001) FPS\r\nColor space                              : YUV\r\nChroma subsampling                       : 4:2:0\r\nBit depth                                : 8 bits\r\nScan type                                : Progressive\r\nBits/(Pixel*Frame)                       : 0.067\r\nStream size                              : 752 MiB (89%)\r\nWriting library                          : x264 core 155 r2901 7d0ff22\r\n\r\nAudio\r\nFormat                                   : AAC\r\nFormat/Info                              : Advanced Audio Codec\r\nFormat profile                           : LC\r\nCodec ID                                 : A_AAC-2\r\nDuration                                 : 1 h 37 min\r\nBit rate                                 : 128 kb/s\r\nChannel(s)                               : 2 channels\r\nChannel positions                        : Front: L R\r\nSampling rate                            : 48.0 kHz\r\nFrame rate                               : 46.875 FPS (1024 SPF)\r\nCompression mode                         : Lossy\r\nStream size                              : 89.2 MiB (11%)\r\nLanguage                                 : English","last_updated":"2018-09-19T12:22:12.626Z","parsed":{"xt":"urn:btih:3ae8ded3f4895d18e941d534df2e525634ae6a5c","dn":"The First Purge 2018 720p WEB-DL x264 ESub [MW]","tr":["udp://exodus.desync.com:6969","udp://open.demonii.com:1337","udp://tracker.coppersurfer.tk:6969","udp://tracker.leechers-paradise.org:6969","udp://zer0day.ch:1337"],"infoHash":"3ae8ded3f4895d18e941d534df2e525634ae6a5c","infoHashBuffer":{"type":"Buffer","data":[58,232,222,211,244,137,93,24,233,65,213,52,223,46,82,86,52,174,106,92]},"name":"The First Purge 2018 720p WEB-DL x264 ESub [MW]","announce":["udp://exodus.desync.com:6969","udp://open.demonii.com:1337","udp://tracker.coppersurfer.tk:6969","udp://tracker.leechers-paradise.org:6969","udp://zer0day.ch:1337"],"urlList":[]}}